<svg version="1.2" xmlns="http://www.w3.org/2000/svg" viewBox="0 0 400 400" width="400" height="400">
	<title>empty-cart</title>
	<style>
		.s0 { mix-blend-mode: hue;fill: #ffffff } 
	</style>
	<path class="s0" d="m379.7 399.5l-120.7-119.8h-150q-18 0-26.5-12.9-8.4-13 0.5-28.1l33-55.2-40.5-88.2-75.5-75.5 20.3-20.3 379.7 379.8zm-266.1-21.7q-14.1 0-24-10-9.9-10-9.9-24.1 0-14 10-24 10-9.9 24.1-9.9 14 0 23.9 10 9.9 10.1 9.9 24.1 0 14.1-10 24-10 9.9-24 9.9zm166.6-175h-16.5l-27.9-28.3h40.1l59.5-107.6h-208.1l-28.3-28.3h249.6q12.2 0 17.9 10.2 5.7 10.1-1 21.9l-66.5 120.7q-2.7 5.4-7 8.4-4.3 3-11.8 3zm-49.6 48.6l-47.6-49.1h-44.8l-29.7 49.1zm45.3-76.9h-40.1zm26.8 203.3q-13.6 0-23.8-10-10.1-10-10.1-24.1 0-14 10.1-24 10.2-9.9 23.8-9.9 13.7 0 23.9 10 10.1 10.1 10.1 24.1 0 14.1-10.1 24-10.2 9.9-23.9 9.9z"/>
</svg>