<svg version="1.2" xmlns="http://www.w3.org/2000/svg" viewBox="0 0 1600 1600" width="400" height="400">
	<title>vecteezy_business-handshake-vector-icon_4994259</title>
	<style>
		.s0 { fill: #ffffff;stroke: #ffffff;stroke-miterlimit:100;stroke-width: 45 } 
	</style>
	<path class="s0" d="m634.2 1278.4c-19.9-9.1-35.1-23.1-44.1-40.7l-7.9-15.6-20.8 0.9c-35.7 1.4-65-16.4-81.1-49.3-9.1-18.6-9.2-18.7-24.9-18.7-41.4-0.2-79.7-35.8-84.8-78.6-1.8-15.2-2.8-16.8-12.6-18.9-28.2-6.1-54.5-29.2-65.2-57.1-8.6-22.7-6.1-55.3 5.6-73.1l8.9-13.3-24.7-30.6c-35.7-44.3-33-43.4-47.9-16.7-10.5 18.9-15.3 23.8-27.9 29.4-10.2 4.5-18.5 6-25.4 4.5-10.9-2.4-112.6-62.6-124.8-73.9-4-3.7-9.1-13.4-11.4-21.5-3.6-12.9-3.3-16.6 2.5-29.6 3.7-8.2 55.6-101.8 115.5-207.9 59.8-106.1 113.9-202.5 120.1-214.1 6.3-11.7 15.4-24.4 20.2-28.1 11.2-8.9 29.1-12.1 41.9-7.7 17 6 112.8 66.1 121.2 76.1 12.9 15.3 14 31 3.9 53.2-4.8 10.4-8.7 19.4-8.7 20 0 2.5 54.3 32 64.8 35.2 6.6 2 28.8 6.1 49.4 9.3l37.5 5.7 5.1-8.1c25.1-39.5 81.5-55 227.3-62.8 53.5-2.8 101.6 2.4 177 19.1 33.5 7.4 68.2 13.4 77.2 13.4 13.3 0 35.7-4.8 40.6-8.7 0.6-0.5-2.9-8.3-7.7-17.4-11.1-20.9-11.5-40.5-1.1-55.8 5.1-7.5 26.6-22.8 64-45.4 64.1-38.8 75.9-42.4 95.5-29.1 13.2 8.9 14.8 11.6 105.9 173.5 34.3 61.1 83.7 148.7 109.7 194.8 26 46 48.3 88.6 49.5 94.4 2.8 14.2-3.5 32.1-14.9 42.6-12.7 11.6-109.6 69.8-120.6 72.3-19.6 4.6-42.1-8.5-54.6-31.9-12.7-24-10.8-24.2-39.7 3.8-14.6 14.2-33.1 30.1-41 35.3-14.2 9.3-14.4 9.6-9.4 19.2 2.7 5.3 4.9 18.6 4.9 29.5-0.2 45.6-31.6 80.7-76.4 85.3l-17.6 1.9-6 20.2c-7.9 26.8-28.4 48-53.9 55.6-9.9 2.9-21.5 5.3-25.8 5.3-6.3 0-8.5 2.8-11.6 14.5-5.7 21.7-19.2 42.7-33.3 52-7.8 5.2-22.5 9.9-38.2 12.5-25.1 4-26.1 4.5-43.8 23.9-45 49.3-102.6 55.3-208.2 21.8l-26.2-8.3-15.5 16.8c-8.5 9.2-21.2 19.1-28.1 22-17 7.1-45.6 6.6-62.4-1.1zm57.4-55.9c31.1-38.2 50.2-68.4 50.2-79.3 0-16.2-13-33.3-29.7-39.1-12.5-4.4-14.9-4.3-22.5 0.6-9.1 6-54.6 65-61.1 79.3-9.7 21.3 13.1 53 38.2 53 11.3 0 14.8-2 24.9-14.5zm211.7-2.8c7.2-2 19.3-9.3 26.9-16.1l13.9-12.5-75.4-36.5c-66.6-32.3-75.7-37.6-77.8-46-3-12.1 4.3-25.5 16.2-29.4 7.6-2.5 21.2 3 90.5 36.9 76.3 37.3 82.8 39.8 102.4 40 26.1 0.3 37-6.1 42.7-25.1 3.4-11.4 3.3-14.6-0.7-18.3-2.7-2.5-43.3-26.5-90.2-53.3-47-26.8-88.1-51.1-91.4-53.9-9.4-8.1-7.7-26.1 3.3-34.8 5.5-4.4 12-6.6 16.3-5.5 3.9 1 49.7 26.4 101.9 56.5 83 47.9 96.8 54.8 109.9 54.8 8.2 0 18.8-1.5 23.6-3.3 12.2-4.7 22.8-23 21.7-37.5-0.9-11.6-2.6-12.8-103.7-73.4-56.5-33.9-105.3-63.8-108.4-66.3-8.7-7.3-7.5-29.5 1.9-36.1 4.2-3 10.3-5.3 13.6-5.3 3.3 0 58.5 31.5 122.7 70 105.1 63 118.2 70 131.9 70 12.7 0 17-1.9 26.8-11.7 9.2-9.2 11.6-14.3 11.6-24.8 0-22.3-9.4-31.9-92.2-95.4-109.4-83.8-190-136.2-303-197.3l-48.6-26.2-24 7.3c-13.1 4-23.9 8.5-23.9 10.1 0 6.5-53.7 59.1-74.7 73-31.1 20.7-68 32.8-100.1 32.8-43.9 0-62.9-17.5-62.1-56.9 0.6-26.9 8.8-45 46.3-101l29.1-43.5-12.3-2.1c-60.2-10.3-71.3-14.2-110.6-38.2-10.8-6.6-20.3-11.5-21-10.7-3.1 3.2-162.5 287.2-162.5 289.5 0 1.5 4 6.4 8.9 10.9 4.9 4.6 19 21 31.4 36.5l22.4 28.2 7.1-6.7c20.3-19 57.9-22.8 86.5-8.5 16.3 8.1 35 25.2 39.5 36.2 1.5 3.5 2.7 3.3 5.6-1.2 17.9-28.2 38.5-40.3 68.4-40.3 25 0 39.1 5.4 57.9 22.4 17.5 15.9 27.2 34.1 29.8 56.3 1.7 13.9 3.2 16.9 8.9 16.9 12.2 0 37.1 14.9 50.7 30.3 14.1 16.1 23.4 40.9 23.4 62.5 0 9.4 1.5 13 5.3 13 8.8 0 30.8 12.7 42.7 24.6 28.4 28.4 35.5 75.2 15.8 104.8l-9.3 14.1 7.8 3c8.6 3.2 60.9 16.3 74.3 18.5 16.9 2.8 39.6 2.2 52.3-1.3zm-280.9-110.8c42.7-58.4 44.8-62.1 43.1-74.6-3.2-23.8-29.8-42.8-50.1-35.6-8.3 2.9-90.4 110.7-96.7 126.9-6.5 16.9 10.1 43.9 30.5 49.6 18.3 5.2 26.1-2 73.2-66.3zm-149.9-5.9c2.9-2.4 24.2-30.4 47.3-62.3 23.2-32 47.3-64.1 53.5-71.5 13.5-15.9 14.9-31.3 4.5-48.2-9.3-15-31-23.9-43.5-17.9-5.2 2.5-32 35.6-63 77.7-57.9 78.6-60.7 84.8-48.4 105.7 10.6 18.1 37 26.8 49.6 16.5zm-81.8-95.6c11.6-9.1 43.7-58.5 43.7-67.1 0-11.2-10.7-29-21.7-36.3-5.2-3.3-13.6-5.1-21.5-4.4-12 1-14.9 3.5-34.4 29.4-18.1 23.9-21.4 30.4-21.4 42.2 0 11.6 2.2 16.1 13.3 27.2 10.2 10.2 15.9 13.2 24.9 13.2 6.5 0 14.2-1.9 17.1-4.2zm865.8-138.3c7.6-5.2 27.2-22.2 43.7-37.9 30-28.5 30-28.5 24.7-37.6-3-5-39.5-69.7-81.2-143.9-41.8-74.2-76.1-135.2-76.5-135.6-0.3-0.3-11.9 2.3-25.8 6-32 8.4-55.3 8.3-94-0.4-119.5-27-142.4-29.5-223-24-65.2 4.4-124.8 13.4-144.4 21.6-10 4.3-20.8 17.4-58.5 71.3-57 81.5-66.3 96.8-69.4 113.6l-2.5 13.3 24.4-1.7c43.2-3.1 86.9-31.6 125.5-81.8 15.1-19.6 15.5-19.8 53.5-31.9l38.3-12.2 37.5 18.8c117.6 59.1 250.4 145.2 368.8 239.1 22.6 17.9 41.9 32.6 43 32.6 1.2 0 8.3-4.2 15.9-9.3zm-1054.8-41c7.4-12.7 28-49.2 45.9-81.1 17.8-31.9 65.6-117.1 106.2-189.3 40.6-72.1 73.8-132.1 73.8-133.2 0-1.1-21.3-15.3-47.4-31.4l-47.4-29.5-83 147.3c-127.6 226.3-156.8 278.8-156.8 281.5 0 2.4 88.3 58 92.9 58.5 1.3 0.1 8.4-10.1 15.8-22.8zm1260.7-5.1c26-15.5 47-29.1 46.6-30.1-3.7-10.5-240.4-426.7-242.6-426.7-2.4 0-65 37.6-90.4 54.2-4.5 2.9 5.6 21.5 201.6 370.1 18.8 33.4 34.9 60.6 35.8 60.6 1 0 23-12.6 49-28.1z"/>
</svg>