<svg version="1.2" xmlns="http://www.w3.org/2000/svg" viewBox="0 0 400 400" width="400" height="400">
	<title>images</title>
	<style>
		.s0 { fill: #ffffff } 
	</style>
	<path class="s0" d="m30.1 387.6q-12.1 0-21.1-9-9-9-9-21.1v-300.7q0-12 9-21.1 9-9 21.1-9h106.7v30.1h-106.7v300.7h300.7v-136.3l30.1 30.1v106.2q0 12.1-9 21.1-9 9-21.1 9zm28.6-78.7h244.1l-73.7-97.7-65.1 85.2-46.7-63.2zm319.8-82.7l-66.6-66.6q-10.5 7-20.8 10.2-10.3 3.3-24.3 3.3-35.1 0-59.2-24.1-24-24-24-59.1 0-35.1 24-59.2 24.1-24 59.2-24 35.1 0 59.1 24 24.1 24.1 24.1 59.2 0 14-4 26.6-4 12.5-11.1 23l65.2 65.2zm-111.8-83.2q23.1 0 38.1-15.1 15.1-15 15.1-38.1 0-23-15.1-38.1-15-15-38.1-15-23 0-38.1 15-15 15.1-15 38.1 0 23.1 15 38.1 15.1 15.1 38.1 15.1z"/>
</svg>