<svg version="1.2" xmlns="http://www.w3.org/2000/svg" viewBox="0 0 400 400" width="400" height="400">
	<title>website</title>
	<style>
		.s0 { fill: #ffffff } 
	</style>
	<path class="s0" d="m200 400q-42 0-78.5-15.8-36.5-15.7-63.5-42.7-27-27-42.5-63.8-15.5-36.7-15.5-78.7 0-42 15.5-78.3 15.5-36.2 42.5-63.2 27-27 63.5-42.3 36.5-15.2 78.5-15.2 42 0 78.5 15.3 36.5 15.2 63.5 42.2 27 27 42.5 63.2 15.5 36.3 15.5 78.3 0 42-15.5 78.7-15.5 36.8-42.5 63.8-27 27-63.5 42.7-36.5 15.8-78.5 15.8zm0-29q17.5-18 29.3-41.3 11.7-23.2 19.2-55.2h-96.5q7 30 18.7 54 11.8 24 29.3 42.5zm-42.5-6q-12.5-19-21.5-41-9-22-15-49.5h-75q19 35.5 44 55.7 25 20.3 67.5 34.8zm85.5-0.5q36-11.5 64.8-34.5 28.7-23 46.2-55.5h-74.5q-6.5 27-15.3 49-8.7 22-21.2 41zm-207-120h79.5q-1.5-13.5-1.8-24.3-0.2-10.7-0.2-21.2 0-12.5 0.5-22.3 0.5-9.7 2-21.7h-80q-3.5 12-4.8 21.5-1.2 9.5-1.2 22.5 0 13 1.2 23.2 1.3 10.3 4.8 22.3zm110.5 0h107.5q2-15.5 2.5-25.3 0.5-9.7 0.5-20.2 0-10-0.5-19.3-0.5-9.2-2.5-24.7h-107.5q-2 15.5-2.5 24.7-0.5 9.3-0.5 19.3 0 10.5 0.5 20.2 0.5 9.8 2.5 25.3zm137.5 0h80q3.5-12 4.8-22.3 1.2-10.2 1.2-23.2 0-13-1.2-22.5-1.3-9.5-4.8-21.5h-79.5q1.5 17.5 2 26.7 0.5 9.3 0.5 17.3 0 11-0.8 20.7-0.7 9.8-2.2 24.8zm-5-119.5h75q-16.5-34.5-45.3-57.5-28.7-23-66.2-32.5 12.5 18.5 21.3 40 8.7 21.5 15.2 50zm-127 0h97q-5.5-26.5-18.5-51.3-13-24.7-30.5-43.7-16 13.5-27 35.5-11 22-21 59.5zm-106 0h75.5q5.5-27 14-48.3 8.5-21.2 21.5-41.2-37.5 9.5-65.5 32-28 22.5-45.5 57.5z"/>
</svg>